<?xml version="1.0" encoding="utf-8"?>
<!-- Generator: Adobe Illustrator 16.0.0, SVG Export Plug-In . SVG Version: 6.00 Build 0)  -->
<!DOCTYPE svg PUBLIC "-//W3C//DTD SVG 1.1//EN" "http://www.w3.org/Graphics/SVG/1.1/DTD/svg11.dtd">
<svg version="1.1" id="Capa_1" xmlns="http://www.w3.org/2000/svg" xmlns:xlink="http://www.w3.org/1999/xlink" x="0px" y="0px"
	 width="557.41px" height="544.708px" viewBox="0 0 557.41 544.708" enable-background="new 0 0 557.41 544.708"
	 xml:space="preserve">
<path d="M556.82,524.107L385.497,360.557C417.872,322.381,437.41,272.976,437.41,219c0-120.95-98.05-219-219-219
	c-120.951,0-219,98.05-219,219s98.049,219,219,219c56.555,0,108.099-21.44,146.957-56.632l171.59,163.34L556.82,524.107z
	 M218.41,409c-104.935,0-190-85.066-190-190s85.065-190,190-190c104.934,0,190,85.066,190,190S323.344,409,218.41,409z"/>
</svg>
